<svg xmlns="http://www.w3.org/2000/svg" width="89.205" height="12.66" viewBox="0 0 89.205 12.66">
  <path id="パス_25" data-name="パス 25" d="M9.45-7.935H2.22c-.69,0-.735.735-.735.735a.736.736,0,0,0,.735.735H8.205a1.834,1.834,0,0,1,1.83,1.815v2.61A1.834,1.834,0,0,1,8.205-.225H2.22c-.66,0-.735.72-.735.72a.736.736,0,0,0,.735.735H9.45A4.347,4.347,0,0,0,13.8-3.09V-3.6A4.36,4.36,0,0,0,9.45-7.935ZM17.58-2.4h9.81a.96.96,0,0,0,.96-.93.943.943,0,0,0-.96-.945H17.58a.956.956,0,0,0-.96.945A.96.96,0,0,0,17.58-2.4ZM41.19-9a1.056,1.056,0,0,0,1.065-1.05,1.069,1.069,0,0,0-1.065-1.065,1.056,1.056,0,0,0-1.05,1.065A1.044,1.044,0,0,0,41.19-9Zm3-2.115a1.056,1.056,0,0,0-1.05,1.065A1.044,1.044,0,0,0,44.19-9a1.056,1.056,0,0,0,1.065-1.05A1.069,1.069,0,0,0,44.19-11.115ZM32.04-6.66h11.1c.66,0,.72-.735.72-.735a.73.73,0,0,0-.72-.72H32.04a.728.728,0,0,0-.72.735A.72.72,0,0,0,32.04-6.66ZM43.545-5.25H31.635c-.69,0-.735.735-.735.735a.733.733,0,0,0,.735.72h3.99a.614.614,0,0,1,.645.675c-.075.6-.165,1.245-.18,1.35A2.179,2.179,0,0,1,34.005.03h-.15c-.69,0-.72.735-.72.735a.733.733,0,0,0,.72.735H35.04a5.175,5.175,0,0,0,4.95-4.32l.045-.24a.838.838,0,0,1,.81-.735h2.7c.675,0,.735-.72.735-.72A.736.736,0,0,0,43.545-5.25Zm14.58.69-1.14-1.155a.833.833,0,0,0-.675-.3.71.71,0,0,0-.54.315c-.765.975-3.09,3.24-7.815,3.315a.668.668,0,0,0-.705.63.683.683,0,0,0,.66.645,11.453,11.453,0,0,0,3.075-.075.538.538,0,0,1,.39.105.584.584,0,0,1,.18.5V.945a.6.6,0,0,0,.6.6H53.9a.6.6,0,0,0,.6-.6V-1.56a.709.709,0,0,1,.45-.615A16.738,16.738,0,0,0,57.8-3.57a.813.813,0,0,0,.465-.54A.432.432,0,0,0,58.125-4.56ZM62.715-.8a.978.978,0,0,1,.945-.99h5.6a3.086,3.086,0,0,0,2.685-1.68l.57-1.23a.753.753,0,0,1,.975-.465.765.765,0,0,1,.45.945l-.795,1.83A6.035,6.035,0,0,1,67.56,1.5H63.675a.949.949,0,0,1-.96-.945ZM67.77-7.92H62.115a.95.95,0,0,0-.96.915.953.953,0,0,0,.96.96H67.77a.953.953,0,0,0,.96-.96A.936.936,0,0,0,67.77-7.92ZM86.625-9a1.056,1.056,0,0,0,1.065-1.05,1.069,1.069,0,0,0-1.065-1.065,1.056,1.056,0,0,0-1.05,1.065A1.044,1.044,0,0,0,86.625-9Zm3-2.115a1.056,1.056,0,0,0-1.05,1.065A1.044,1.044,0,0,0,89.625-9a1.056,1.056,0,0,0,1.065-1.05A1.069,1.069,0,0,0,89.625-11.115ZM77.235-4.5c-.27,1.17-1.11,1.26-1.11,1.26a.755.755,0,0,0-.75.72.724.724,0,0,0,.72.735h1.26a3.784,3.784,0,0,0,3.615-2.46l.33-1.08a1.831,1.831,0,0,1,1.725-1.32h1.14a1.567,1.567,0,0,1,1.59,1.785c0,.045-.345,2.91-.375,3.09-.135.99-1.56,1.8-2.565,1.8H81.45c-.69,0-.72.735-.72.735a.733.733,0,0,0,.72.735h2.88a5.269,5.269,0,0,0,4.95-4.32l.09-.945a3.707,3.707,0,0,0-3.765-4.32l-4.53.015A3.7,3.7,0,0,0,77.6-5.64Z" transform="translate(-1.485 11.115)" fill="#fbfbf8"/>
</svg>
