<svg xmlns="http://www.w3.org/2000/svg" width="58.082" height="12.615" viewBox="0 0 58.082 12.615">
  <path id="パス_26" data-name="パス 26" d="M11.19-9a1.056,1.056,0,0,0,1.065-1.05,1.069,1.069,0,0,0-1.065-1.065,1.056,1.056,0,0,0-1.05,1.065A1.044,1.044,0,0,0,11.19-9Zm3-2.115a1.056,1.056,0,0,0-1.05,1.065A1.044,1.044,0,0,0,14.19-9a1.056,1.056,0,0,0,1.065-1.05A1.069,1.069,0,0,0,14.19-11.115ZM2.04-6.66h11.1c.66,0,.72-.735.72-.735a.73.73,0,0,0-.72-.72H2.04a.728.728,0,0,0-.72.735A.72.72,0,0,0,2.04-6.66ZM13.545-5.25H1.635c-.69,0-.735.735-.735.735a.733.733,0,0,0,.735.72h3.99a.614.614,0,0,1,.645.675c-.075.6-.165,1.245-.18,1.35A2.179,2.179,0,0,1,4.005.03h-.15c-.69,0-.72.735-.72.735a.733.733,0,0,0,.72.735H5.04A5.175,5.175,0,0,0,9.99-2.82l.045-.24a.838.838,0,0,1,.81-.735h2.7c.675,0,.735-.72.735-.72A.736.736,0,0,0,13.545-5.25ZM26.445-9a1.044,1.044,0,0,0,1.05-1.05,1.056,1.056,0,0,0-1.05-1.065A1.06,1.06,0,0,0,25.38-10.05,1.047,1.047,0,0,0,26.445-9Zm3-2.115A1.06,1.06,0,0,0,28.38-10.05,1.047,1.047,0,0,0,29.445-9a1.044,1.044,0,0,0,1.05-1.05A1.056,1.056,0,0,0,29.445-11.115Zm-13.62,5.61a.7.7,0,0,1-.69-.72s.045-.735.69-.735h.4a.712.712,0,0,0,.7-.8c0-.255.33-.45.735-.45h2.3c.405,0,.735.2.735.45a.74.74,0,0,0,.72.8h2.325c.405,0,.675-.255.8-.81.045-.24.375-.45.78-.45h2.3c.4,0,.7.21.675.45a.645.645,0,0,0,.675.81h.1a.72.72,0,0,1,.735.735.724.724,0,0,1-.735.72h-.285a.853.853,0,0,0-.825.735l-.33,1.95A5.282,5.282,0,0,1,22.68,1.5H20.4a.736.736,0,0,1-.735-.735S19.71.03,20.4.03h1.245a2.15,2.15,0,0,0,2.07-1.8c.03-.18.48-3,.48-3a.622.622,0,0,0-.63-.735H21.42a.733.733,0,0,0-.72.735v2.79a.736.736,0,0,1-.735.735h-2.3a.736.736,0,0,1-.735-.735V-4.77a.721.721,0,0,0-.7-.735ZM44.58-6.45,43.08-8a.941.941,0,0,0-1.515.03C38.385-3.975,32.91-3.585,31.2-3.57a.82.82,0,0,0-.87.765.838.838,0,0,0,.81.8,15.084,15.084,0,0,0,4.065-.09s.81-.15.81.84V.765a.736.736,0,0,0,.735.735h2.3A.736.736,0,0,0,39.78.765V-2.55a.976.976,0,0,1,.63-.855A21.129,21.129,0,0,0,44.16-5.25C44.49-5.34,45.045-6.015,44.58-6.45ZM47.715-.8a.978.978,0,0,1,.945-.99h5.6a3.086,3.086,0,0,0,2.685-1.68l.57-1.23a.753.753,0,0,1,.975-.465.765.765,0,0,1,.45.945l-.8,1.83A6.035,6.035,0,0,1,52.56,1.5H48.675a.949.949,0,0,1-.96-.945ZM52.77-7.92H47.115a.95.95,0,0,0-.96.915.953.953,0,0,0,.96.96H52.77a.953.953,0,0,0,.96-.96A.936.936,0,0,0,52.77-7.92Z" transform="translate(-0.9 11.115)" fill="#fbfbf8"/>
</svg>
