<?xml version="1.0" encoding="UTF-8"?>
<svg xmlns="http://www.w3.org/2000/svg" version="1.1" viewBox="0 0 402 402">
  <!-- Generator: Adobe Illustrator 30.1.0, SVG Export Plug-In . SVG Version: 2.1.1 Build 136)  -->
  <defs>
    <style>
      .st0 {
        fill: #061138;
      }

      .st1 {
        fill: #fff;
      }
    </style>
  </defs>
  <g id="_レイヤー_2" data-name="レイヤー_2">
    <rect class="st1" x="0" y="0" width="402" height="402" rx="201" ry="201"/>
  </g>
  <g id="iconz00601114245268700">
    <g>
      <g>
        <path class="st1" d="M312.5,180.7h-1c-4.2-64.2-35.1-115.6-105.3-115.6s-101.2,51.4-105.3,115.6h-1c-13.7-8.2-33.7,7.5-30.6,26.3,6.6,39.6,9.2,49.4,20.9,55.3,6,3.1,11.5,3.1,11.5,3.1h1.2c3.9,24.9,11.8,43.2,21.8,57.2,15.3,21.3,54.8,48.1,81.5,48.1s66.1-26.8,81.5-48.1c10-14,17.9-32.3,21.8-57.2h1.2s5.5,0,11.5-3.1c11.8-5.9,14.4-15.7,20.9-55.3,3.1-18.8-16.8-34.5-30.6-26.3h0Z"/>
        <path class="st0" d="M339.8,182.2c-2.5-2.6-5.6-4.8-8.7-6.3-3.2-1.5-6.8-2.4-10.4-2.4s-3.1.2-4.7.6c-.9-10.3-2.6-20.3-5-29.7-6.2-24.2-17.4-45.2-34.7-60.3-8.6-7.5-18.8-13.5-30.5-17.6-11.7-4.1-24.8-6.3-39.6-6.3s-36.5,3.9-50.7,11c-21.4,10.7-36.5,28.5-46.1,50.2-6.9,15.8-11.1,33.7-12.9,52.7-1.6-.4-3.1-.6-4.8-.6-3.6,0-7.1.8-10.4,2.4-4.8,2.3-9.1,5.9-12.2,10.6s-5.1,10.3-5.1,16.5,0,3.1.4,4.8h0c3.3,19.8,5.6,32.2,8.8,41.1,1.6,4.4,3.5,8,5.9,10.9,2.5,3,5.5,5.1,8.8,6.8,7,3.5,13.2,3.6,13.6,3.7.4,0,.7,0,1,0,2.2,9.9,4.1,18.2,5.9,25.3,1.9,6.8,3.7,12.6,6,18.1,2.3,5.4,5.2,10.4,8.7,15.4,8.2,11.5,21.7,22.9,36.6,31.7,7.5,4.4,15.4,8.2,23.2,10.7,7.8,2.7,15.7,4.3,23.1,4.3s15.2-1.6,23.1-4.3c11.8-4,23.5-10.4,34-17.8,10.5-7.5,19.5-16,25.8-24.6,3.5-4.9,6.4-9.9,8.7-15.4,3.5-8.2,6-17.2,8.8-29,1-4.4,2-9.1,3.2-14.4.4,0,.6,0,1,0s6.6,0,13.6-3.7c3.3-1.7,6.4-3.9,8.8-6.8,1.9-2.2,3.4-4.8,4.7-7.8,1.9-4.5,3.5-10,5.1-17.1s3.1-16,5-27.1h0c.3-1.6.4-3.2.4-4.8,0-8.2-3.5-15.5-8.5-20.8h0ZM338.3,206.1c-3.2,19.7-5.7,32-8.3,39.4-1.4,3.7-2.7,6.2-4.3,8s-3.2,3.1-5.7,4.4c-2.5,1.3-4.9,1.9-6.7,2.2-.6,0-.9.2-1.4.2,1.5-6.6,3.1-13.7,4.9-21.8.6-2.6-1-5.3-3.6-5.8-2.6-.6-5.3,1-5.8,3.6h0c-6.1,26.1-9.4,43.6-13,56.6-3.5,13-3.5,11.9-5.6,16.7-2.1,4.8-4.5,9.1-7.7,13.5-7,9.9-19.7,20.8-33.6,29-6.9,4.1-14.3,7.5-21.3,9.9-7,2.4-13.9,3.7-19.9,3.7s-12.8-1.3-19.9-3.7c-10.7-3.6-21.7-9.5-31.5-16.5-9.7-6.9-18.2-15-23.5-22.4-3.1-4.4-5.6-8.7-7.7-13.5-3.1-7.2-5.5-15.7-8.2-27.3-2.7-11.7-5.7-26.4-10.3-46-.6-2.6-3.2-4.3-5.8-3.6-2.6.6-4.3,3.2-3.6,5.8,1.9,8.1,3.5,15.3,4.9,21.8-1.8-.2-4.9-.8-8.1-2.5-2.5-1.3-4.3-2.6-5.7-4.4-1.1-1.4-2.2-3.1-3.2-5.4-1.6-3.5-3-8.4-4.4-15.3-1.5-6.9-3.1-15.6-4.9-26.7h0c-.2-1.1-.3-2.1-.3-3.1,0-5.4,2.3-10.4,5.8-14,1.8-1.9,3.8-3.2,5.8-4.3,2-1,4.2-1.5,6.2-1.5s2.8.3,4.1.7c-.2,4-.3,8-.3,12s2.2,4.9,4.9,4.9,4.9-2.2,4.9-4.9h0c0-17.4,1.9-34.2,5.7-49.3,5.8-22.8,16.2-42,31.7-55.4,7.8-6.8,16.8-12,27.3-15.7s22.6-5.7,36.3-5.7,33.6,3.6,46.3,9.9c19.1,9.5,32.6,25.3,41.5,45.5,8.9,20.1,13.1,44.6,13.1,70.8s2.2,4.9,4.9,4.9,4.9-2.2,4.9-4.9c0-4.1,0-8.1-.3-12,1.3-.5,2.7-.7,4.1-.7s4.1.5,6.2,1.5c3.1,1.5,6.1,4,8.2,7.2,2.1,3.1,3.4,6.9,3.4,11s0,2.1-.3,3.1h-.3Z"/>
      </g>
      <path class="st0" d="M357.9,180.9c-5.2-10.3-37.6-191.7-160.7-147.7-55.7-16.9-94.5,29.7-113.5,68.6-46,94.7-17.9,88.3-14.5,105.1,3.2,16.8,32.5,17.3,32.5,17.3,1.3,4.8,8.3,4.2,8.7-.8v-.4c7.5-2.5,17.3-10.3,18.1-33.2,1.3-37.6,38.6-81.7,54.8-72.9,45.7-26.5,40.5,38.6,66.9,79,26.4,40.3,49.6,51,61.8,51.6,1.2-4.4,2.1-8.3,3.1-11.9,2.1-8.5,10.4-13.7,19.1-12.7,1.9.3,4.1,0,6.4-1.3,12.2-6.3,22.6-30.8,17.4-41v.2h0Z"/>
      <path class="st0" d="M191.2,315.7h0c4.1,1,10,1.4,15.7,1.4s5.5,0,7.8-.4c1.1,0,2.2-.3,3.1-.5s1.9-.5,2.7-.8c1.7-.8,2.3-2.8,1.5-4.4s-2.8-2.3-4.4-1.5c0,0-.5.2-1.1.3-1.9.5-5.7.6-9.6.6s-11-.5-14.1-1.2c-1.8-.5-3.6.6-4.1,2.4s.6,3.6,2.4,4.1h.2Z"/>
      <g>
        <path class="st1" d="M212.7,271.4c0,7.3-2.1,5.6-5.8,5.6s-6.7-5.9-6.7-13.2,3-13.2,6.7-13.2,5.8,13.5,5.8,20.8h0Z"/>
        <path class="st0" d="M200.4,233.2c-.9,6.1-2.3,20.3-2.3,31s.2,6.6.6,9.1c.2,1.3.5,2.4.9,3.4.3.6.6,1.1,1,1.6.5.6,1.2,1.1,2.1,1.3,1.7.5,3.1.6,4.4.6,2.4,0,3.9-.6,4.3-.9,1.5-.8,2-2.8,1.2-4.3s-2.8-2-4.3-1.2l.7,1.3-.6-1.4h-.2l.7,1.4-.6-1.4s-.4.2-1.4.2-1.6,0-2.8-.4l-.5,1.9,1.4-1.3c0,0-.5-.4-.9-.6l-.5,1.9,1.4-1.3-.6.6.6-.5h0c0,0-.6.5-.6.5l.6-.5v-.2c-.3-.6-.6-1.9-.7-3.6s-.3-3.9-.3-6.2c0-10.2,1.4-24.4,2.2-30.1.3-1.7-.9-3.2-2.6-3.5s-3.2.9-3.5,2.6h0Z"/>
      </g>
      <g>
        <path class="st0" d="M152.9,245c-4.4-1.6,7.5-15.7,15-15.7s3.1,5-1.9,8.3c-5,3.3-8.4,9.2-13.2,7.4h0Z"/>
        <path class="st0" d="M258.8,245c4.4-1.6-7.5-15.7-15-15.7s-3.1,5,1.9,8.3c5,3.3,8.4,9.2,13.2,7.4h0Z"/>
      </g>
      <g>
        <path class="st0" d="M191,207c0-1.3-1-2.4-2.2-2.8-15.6-4.5-42.8-4.7-51.6,5.9-2.2,4.2,3.4,2.3,7.7,1,12.4-3.8,36.7-1.5,42.3,0,3.7,1,4.1-1.9,3.9-4.2h0Z"/>
        <path class="st0" d="M221.4,207c0-1.3,1-2.4,2.2-2.8,15.6-4.5,42.8-4.7,51.6,5.9,2.2,4.2-3.4,2.3-7.7,1-12.4-3.8-36.7-1.5-42.3,0-3.7,1-4.1-1.9-3.9-4.2h0Z"/>
      </g>
      <path class="st0" d="M318.6,208.2c-.7-1.8-2.9-2.6-4.7-1.9l-31.4,13.6c-3.6-15.1-17.2-26.3-33.4-26.3s-30.7,11.9-33.8,27.7c-.3-.2-.6-.4-.8-.5-2.6-1.2-5.6-1.9-8.6-1.9s-6,.6-8.8,2.1c-3.2-15.7-17.1-27.5-33.7-27.5s-29.8,11.2-33.4,26.3l-31.4-13.6c-1.8-.7-3.9,0-4.7,1.9-.7,1.8,0,3.9,1.9,4.7l33.3,14.5v.7c0,19,15.4,34.5,34.5,34.5s33.6-14.6,34.4-33c2.2-2.4,5.1-3.5,8.2-3.5s4,.5,5.7,1.2c1.4.6,2.4,1.4,3.1,2.3.7,18.3,15.8,33,34.4,33s34.5-15.4,34.5-34.5v-.7l33.3-14.5c1.8-.7,2.6-2.9,1.9-4.7h0ZM182.6,247.5c-5,4.9-11.8,8-19.4,8s-14.4-3.1-19.4-8c-4.9-5-8-11.8-8-19.4s3.1-14.4,8-19.4c5-4.9,11.8-8,19.4-8s14.4,3.1,19.4,8c4.9,5,8,11.8,8,19.4s-3.1,14.4-8,19.4ZM268.3,247.5c-5,4.9-11.8,8-19.4,8s-14.4-3.1-19.4-8c-4.9-5-8-11.8-8-19.4s3.1-14.4,8-19.4c5-4.9,11.8-8,19.4-8s14.4,3.1,19.4,8c4.9,5,8,11.8,8,19.4s-3.1,14.4-8,19.4Z"/>
    </g>
  </g>
</svg>