<svg xmlns="http://www.w3.org/2000/svg" width="259.455" height="19.097" viewBox="0 0 259.455 19.097">
  <path id="パス_37" data-name="パス 37" d="M28.188-12.47l-2.9-2.987a1.82,1.82,0,0,0-2.929.058C16.211-7.685,5.626-6.931,2.32-6.9A1.584,1.584,0,0,0,.638-5.423,1.621,1.621,0,0,0,2.2-3.886a29.163,29.163,0,0,0,7.859-.174s1.566-.29,1.566,1.624V1.479A1.423,1.423,0,0,0,13.05,2.9h4.437a1.423,1.423,0,0,0,1.421-1.421V-4.93a1.888,1.888,0,0,1,1.218-1.653,40.85,40.85,0,0,0,7.25-3.567C28.014-10.324,29.087-11.629,28.188-12.47ZM33.93-1.537a1.89,1.89,0,0,1,1.827-1.914H46.574A5.966,5.966,0,0,0,51.765-6.7l1.1-2.378a1.456,1.456,0,0,1,1.885-.9,1.478,1.478,0,0,1,.87,1.827L54.114-4.611A11.708,11.708,0,0,1,43.3,2.9l-7.511.029A1.842,1.842,0,0,1,33.93,1.073ZM43.7-15.283H32.77a1.846,1.846,0,0,0-1.885,1.769,1.877,1.877,0,0,0,1.885,1.856H43.7a1.842,1.842,0,0,0,1.856-1.856A1.836,1.836,0,0,0,43.7-15.283Zm0,5.655H32.77a1.846,1.846,0,0,0-1.885,1.769A1.877,1.877,0,0,0,32.77-6H43.7a1.842,1.842,0,0,0,1.856-1.856A1.836,1.836,0,0,0,43.7-9.628ZM86.188-12.47l-2.9-2.987a1.82,1.82,0,0,0-2.929.058C74.211-7.685,63.626-6.931,60.32-6.9a1.584,1.584,0,0,0-1.682,1.479A1.621,1.621,0,0,0,60.2-3.886a29.163,29.163,0,0,0,7.859-.174s1.566-.29,1.566,1.624V1.479A1.423,1.423,0,0,0,71.05,2.9h4.437a1.423,1.423,0,0,0,1.421-1.421V-4.93a1.888,1.888,0,0,1,1.218-1.653,40.85,40.85,0,0,0,7.25-3.567C86.014-10.324,87.087-11.629,86.188-12.47Zm56.985-.986H129.137c-1.421,0-1.3-1.189-1.3-1.189a1.047,1.047,0,0,0-1.16-1.218h-4.466a1.669,1.669,0,0,0-1.6,1.392l-.87,5.684s-.522,2.523-1.624,2.523a1.432,1.432,0,0,0-1.45,1.392,1.375,1.375,0,0,0,1.363,1.421c4.64,0,8.526-3.219,9.135-5.8a1.7,1.7,0,0,1,1.595-1.392H132.3a1.227,1.227,0,0,1,1.247,1.392s-.725,5.568-.754,5.829A4.188,4.188,0,0,1,128.76.058h-1.566a1.423,1.423,0,0,0-1.421,1.421A1.443,1.443,0,0,0,127.194,2.9h3.567a10.187,10.187,0,0,0,9.57-8.352l.464-3.8a1.7,1.7,0,0,1,1.6-1.392h.783a1.423,1.423,0,0,0,1.421-1.421A1.372,1.372,0,0,0,143.173-13.456Zm30.015.986-2.9-2.987a1.82,1.82,0,0,0-2.929.058c-6.148,7.714-16.733,8.468-20.039,8.5a1.584,1.584,0,0,0-1.682,1.479A1.621,1.621,0,0,0,147.2-3.886a29.163,29.163,0,0,0,7.859-.174s1.566-.29,1.566,1.624V1.479A1.423,1.423,0,0,0,158.05,2.9h4.437a1.423,1.423,0,0,0,1.421-1.421V-4.93a1.888,1.888,0,0,1,1.218-1.653,40.851,40.851,0,0,0,7.25-3.567C173.014-10.324,174.087-11.629,173.188-12.47Zm21.46-3.161-8.729.029a7.226,7.226,0,0,0-6.757,4.7l-.667,2.2c-.551,2.262-2.146,2.436-2.146,2.436a1.432,1.432,0,0,0-1.45,1.392,1.357,1.357,0,0,0,1.363,1.421h2.465c3.48,0,6.351-2.407,6.96-4.756l.667-2.088a3.541,3.541,0,0,1,3.335-2.552h2.2A3.03,3.03,0,0,1,194.967-9.4c0,.029-.174,1.334-.174,1.334-.174.754-.754.464-.754.464a11.479,11.479,0,0,0-5.742-.725,1.536,1.536,0,0,0-1.45,1.45,1.416,1.416,0,0,0,1.363,1.392A8.129,8.129,0,0,1,192.763-2.7a1.046,1.046,0,0,1-.116,1.537A6.067,6.067,0,0,1,189.254.058h-2.61a1.443,1.443,0,0,0-1.421,1.421A1.423,1.423,0,0,0,186.644,2.9h5.568a10.212,10.212,0,0,0,9.57-8.352l.174-1.827A7.186,7.186,0,0,0,194.648-15.631ZM223.1-3.944a3.546,3.546,0,0,1-3.538,3.509h-3.915a3.546,3.546,0,0,1-3.538-3.509V-8.99a3.546,3.546,0,0,1,3.538-3.509h3.915A3.546,3.546,0,0,1,223.1-8.99Zm-1.16-11.4h-8.7a8.429,8.429,0,0,0-8.41,8.381v.986a8.423,8.423,0,0,0,8.41,8.352h8.7a8.4,8.4,0,0,0,8.41-8.352V-6.96A8.41,8.41,0,0,0,221.937-15.341Zm30.8,1.16h-1.16a.949.949,0,0,1-1.015-.87c0-.464-.638-.841-1.421-.841H244.7c-.783,0-1.421.377-1.421.841a.817.817,0,0,1-.754.87h-1.073a8.429,8.429,0,0,0-8.41,8.381v2a1.418,1.418,0,0,0,1.421,1.392H238.9A1.418,1.418,0,0,0,240.323-3.8V-7.83a3.527,3.527,0,0,1,3.538-3.509h6.09a3,3,0,0,1,3.074,3.393s-.58,4.176-.638,4.524a4.157,4.157,0,0,1-4,3.48h-2.639c-1.334,0-1.421,1.421-1.421,1.421A1.423,1.423,0,0,0,245.746,2.9h4.64a10.005,10.005,0,0,0,9.57-8.352l.058-.348A7.189,7.189,0,0,0,252.735-14.181Z" transform="translate(-0.638 16.168)" fill="#0c0d0d"/>
</svg>
