<svg xmlns="http://www.w3.org/2000/svg" width="183.09" height="28.741" viewBox="0 0 183.09 28.741">
  <path id="パス_1263" data-name="パス 1263" d="M25.89-18.96a3.745,3.745,0,0,1-3.75-3.72,3.6,3.6,0,0,1,.75-2.22H.75v10.98H17.46A45.093,45.093,0,0,1,13.02,2.85H25.08a81.892,81.892,0,0,0,3.84-17.46c.15-1.74.33-4.35.45-6.66A3.791,3.791,0,0,1,25.89-18.96Zm0-.75a2.983,2.983,0,0,0,3-2.97,3.009,3.009,0,0,0-3-3,3.009,3.009,0,0,0-3,3A2.983,2.983,0,0,0,25.89-19.71Zm0-4.17a1.2,1.2,0,0,1,1.2,1.2,1.2,1.2,0,0,1-1.2,1.17,1.2,1.2,0,0,1-1.2-1.17A1.2,1.2,0,0,1,25.89-23.88Zm6.48-1.02v27h27v-27ZM48.03-7.92H43.71v-6.66h4.32ZM62.49-24.9v10.98H79.2A45.093,45.093,0,0,1,74.76,2.85H86.82a81.892,81.892,0,0,0,3.84-17.46c.24-2.82.54-7.98.54-10.29ZM120-22.2,95.22-17.28V-7.5l7.71-1.53V2.85h10.68V-11.16L120-12.42Zm5.46,17.16H151.5V-17.91H125.46Zm54.09-4.17V-25.68H168.21V3.06c6.6.03,12.33-.51,15.63-1.38V-9.96C182.94-9.75,181.38-9.48,179.55-9.21ZM155.79-5.94c0,1.92-.21,6.54-1.05,8.79h10.29a32.77,32.77,0,0,0,1.32-9.21V-25.65H155.79Z" transform="translate(-0.75 25.68)" fill="#010101"/>
</svg>
