<svg xmlns="http://www.w3.org/2000/svg" width="189.202" height="19" viewBox="0 0 189.202 19">
  <path id="パス_1264" data-name="パス 1264" d="M2.375-14.25h14.25v2.375h-4.75V0H7.125V-11.875H2.375Zm17.328,0h4.75V-9.5h7.125v-4.75h4.75V0h-4.75V-7.125H24.453V0H19.7Zm19.7,4.75h2.375v-2.375h2.375V-14.25h7.125v2.375h2.375V-9.5h2.375V0h-4.75V-2.375H44.156V0h-4.75Zm4.75,0v4.75h7.125V-9.5H48.906v-2.375H46.531V-9.5Zm14.953-4.75h4.75v2.375h2.375V-9.5h2.375v2.375h2.375V-14.25h4.75V0h-4.75V-2.375H68.609V-4.75H66.234V-7.125H63.859V0h-4.75ZM95.437,0h-4.75V-2.375H88.312V-4.75h-4.75V0h-4.75V-14.25h4.75v7.125h2.375V-9.5h2.375v-2.375h2.375V-14.25h4.75v2.375H93.062V-9.5H90.687v4.75h2.375v2.375h2.375Zm25.156-14.25h4.75v7.125h4.75V-14.25h4.75v7.125h-2.375V-4.75h-2.375V0h-4.75V-4.75h-2.375V-7.125h-2.375Zm19.7,2.375V-14.25h11.875v2.375h2.375v9.5h-2.375V0H140.3V-2.375h-2.375v-9.5Zm9.5,0h-7.125v9.5H149.8Zm7.828-2.375h4.75V-2.375H169.5V-14.25h4.75V-2.375h-2.375V0H160V-2.375h-2.375Zm26.828-2.375h4.75v2.375h2.375v7.125H189.2V-4.75h-4.75V-7.125h-2.375V-14.25h2.375Zm0,14.25h4.75v4.75h-4.75Z" transform="translate(-2.375 16.625)" fill="#ff5409"/>
</svg>
