<svg xmlns="http://www.w3.org/2000/svg" width="11.811" height="11.811" viewBox="0 0 11.811 11.811">
  <path id="up-right-from-square-solid-full" d="M70.7,64.457A.741.741,0,0,1,71.382,64h3.691a.737.737,0,0,1,.738.738v3.691a.74.74,0,0,1-1.262.524l-1.322-1.324-3.539,3.536a.739.739,0,0,1-1.045-1.045l3.539-3.536L70.86,65.259a.735.735,0,0,1-.159-.805ZM64,68.06a1.845,1.845,0,0,1,1.845-1.845h1.845a.738.738,0,0,1,0,1.476H65.845a.37.37,0,0,0-.369.369v5.905a.37.37,0,0,0,.369.369h5.905a.37.37,0,0,0,.369-.369V72.12a.738.738,0,0,1,1.476,0v1.845a1.845,1.845,0,0,1-1.845,1.845H65.845A1.845,1.845,0,0,1,64,73.965Z" transform="translate(-64 -64)" fill="#0c0d0d"/>
</svg>
