<svg xmlns="http://www.w3.org/2000/svg" width="929.913" height="172.08" viewBox="0 0 929.913 172.08">
  <path id="WORKS_-_アウトライン" data-name="WORKS - アウトライン" d="M350.62,3.79A94.491,94.491,0,0,1,315.213-2.9a87.824,87.824,0,0,1-15.13-7.857,85.39,85.39,0,0,1-13.027-10.421,83.986,83.986,0,0,1-10.635-12.649,83.488,83.488,0,0,1-7.953-14.542,84.324,84.324,0,0,1-4.983-16.1A87.259,87.259,0,0,1,261.76-81.78v-.47a86.606,86.606,0,0,1,1.745-17.337,84.5,84.5,0,0,1,5.036-16.152,84.339,84.339,0,0,1,8.028-14.617,85.193,85.193,0,0,1,10.721-12.735A86.593,86.593,0,0,1,300.4-153.6a88.648,88.648,0,0,1,15.2-7.933,94.184,94.184,0,0,1,35.481-6.76A94.491,94.491,0,0,1,386.5-161.6a87.828,87.828,0,0,1,15.13,7.857,85.388,85.388,0,0,1,13.027,10.421,83.976,83.976,0,0,1,10.635,12.649,83.492,83.492,0,0,1,7.953,14.542,84.318,84.318,0,0,1,4.983,16.1A87.257,87.257,0,0,1,439.95-82.72v.47A86.607,86.607,0,0,1,438.2-64.912a84.5,84.5,0,0,1-5.036,16.151,84.345,84.345,0,0,1-8.028,14.617,85.194,85.194,0,0,1-10.721,12.735A86.6,86.6,0,0,1,401.306-10.9,88.656,88.656,0,0,1,386.1-2.97,94.184,94.184,0,0,1,350.62,3.79Zm.47-171.08c-49.531,0-88.33,37.354-88.33,85.04v.47a82.912,82.912,0,0,0,24.994,59.89C304.065-5.975,326.391,2.79,350.62,2.79c49.531,0,88.33-37.354,88.33-85.04v-.47a82.912,82.912,0,0,0-24.994-59.89C397.645-158.525,375.319-167.29,351.09-167.29ZM865.74,3.32A134.125,134.125,0,0,1,844.2,1.6a122.024,122.024,0,0,1-20.422-5.151,105.411,105.411,0,0,1-35.446-20.513l-.364-.322,26-31.06.381.3c16.581,13.028,34.425,19.633,53.036,19.633a39.252,39.252,0,0,0,8.124-.76,18.828,18.828,0,0,0,5.805-2.164,8.763,8.763,0,0,0,4.606-7.856v-.47c0-3.617-1.528-5.985-5.275-8.175-4.012-2.345-10.683-4.534-22.307-7.319a234.731,234.731,0,0,1-24.512-6.7,81.652,81.652,0,0,1-19.805-9.5,46.026,46.026,0,0,1-7.574-6.464,37.751,37.751,0,0,1-5.7-7.956,39.366,39.366,0,0,1-3.586-9.686,52.016,52.016,0,0,1-1.242-11.644v-.47A51.265,51.265,0,0,1,800.359-136a48.006,48.006,0,0,1,12.77-16.837,59.3,59.3,0,0,1,20.21-11.029A86.411,86.411,0,0,1,860.1-167.82a136.44,136.44,0,0,1,19.935,1.4,108.531,108.531,0,0,1,17.851,4.172,96.086,96.086,0,0,1,15.957,6.877,96.781,96.781,0,0,1,14.251,9.512l.367.295L905.1-112.57l-.409-.294c-14.464-10.4-30.718-16.121-45.768-16.121-9.987,0-15.95,3.766-15.95,10.075v.47a8.592,8.592,0,0,0,1.167,4.681A11.3,11.3,0,0,0,848.419-110c4.013,2.254,10.843,4.364,22.836,7.057a190.431,190.431,0,0,1,25.474,7.165A76.118,76.118,0,0,1,916.1-85.7a45.123,45.123,0,0,1,7.11,6.579,37.9,37.9,0,0,1,5.228,7.838,39.611,39.611,0,0,1,3.217,9.25,51.1,51.1,0,0,1,1.095,10.809v.47A52.916,52.916,0,0,1,927.924-28a47.337,47.337,0,0,1-13.64,17.022C902.451-1.623,885.665,3.32,865.74,3.32ZM789.356-24.493C809.1-7.2,836.2,2.32,865.74,2.32c40.713,0,66.005-20.339,66.005-53.08v-.47a50.1,50.1,0,0,0-1.072-10.6,38.611,38.611,0,0,0-3.135-9.016,36.9,36.9,0,0,0-5.09-7.63,44.122,44.122,0,0,0-6.953-6.432,75.152,75.152,0,0,0-19.115-9.941,189.476,189.476,0,0,0-25.342-7.126c-12.257-2.752-18.952-4.826-23.109-7.161a12.255,12.255,0,0,1-4.639-4.1,9.544,9.544,0,0,1-1.315-5.2v-.47a9.382,9.382,0,0,1,4.3-7.991,16.257,16.257,0,0,1,5.3-2.276,30.6,30.6,0,0,1,7.351-.808,70.52,70.52,0,0,1,23.017,4.081,90.945,90.945,0,0,1,22.925,11.935l22.232-31.4c-18.159-14.433-40.08-21.451-67-21.451-18.96,0-34.979,5.1-46.324,14.745a47.01,47.01,0,0,0-12.507,16.488,50.271,50.271,0,0,0-4.354,20.907v.47a51.013,51.013,0,0,0,1.217,11.42,38.362,38.362,0,0,0,3.494,9.44,39.623,39.623,0,0,0,12.962,14.067,80.689,80.689,0,0,0,19.564,9.38,233.843,233.843,0,0,0,24.414,6.672h.005C870.3-60.422,877.048-58.2,881.15-55.8c4.044,2.364,5.77,5.067,5.77,9.039v.47a9.744,9.744,0,0,1-1.291,4.989,10.728,10.728,0,0,1-3.8,3.722c-3.363,2.036-8.223,3.069-14.447,3.069a79.363,79.363,0,0,1-27.817-5.055,96.57,96.57,0,0,1-25.456-14.493ZM204.341,1.675H163.909l-.117-.336-32.429-93.35L98.585,1.675H58.154l-.114-.342L2.832-165H52.072l.107.356L80.393-70.982l31.341-94.488H151.7l.114.343,31.227,94.145L211.363-165h48.3Zm-39.72-1h39L258.277-164H212.107L183.088-67.668l-32.109-96.8H112.456l-32.109,96.8L51.329-164H4.218L58.876.675h39l33.491-95.724.471,1.355ZM791.254.5H735.521l-.149-.219L694.133-60.295,678.005-42.576V.5h-46.59V-165h46.59v65.878L733.909-165H789.3L726.548-93.961Zm-55.2-1h53.307L725.282-94.039l.258-.292L787.081-164h-52.71L677.005-96.4V-164h-44.59V-.5h44.59V-42.964l.13-.143,17.112-18.8ZM615.238.5H561.617l-.148-.223-32.987-49.6H509.04V.5H462.45V-165h78.285c24,0,42.141,5.979,53.934,17.772a49.452,49.452,0,0,1,6.406,7.849,47.709,47.709,0,0,1,4.605,9.01,53.827,53.827,0,0,1,2.776,10.244,69.1,69.1,0,0,1,.929,11.555v.47c0,12.33-3.144,23.071-9.344,31.924C594.353-68.054,586.2-61.645,575.8-57.121Zm-53.085-1h51.189L574.288-57.561l.562-.239c21.939-9.33,33.536-26.724,33.536-50.3v-.47c0-15.832-4.718-28.246-14.424-37.951-11.6-11.6-29.506-17.479-53.227-17.479H463.45V-.5h44.59V-50.32h20.978l.148.223ZM351.09-37.335a42.236,42.236,0,0,1-17.422-3.646A40.96,40.96,0,0,1,320.141-50.8,44.5,44.5,0,0,1,311.4-65.12a48.122,48.122,0,0,1-3.106-17.13v-.47a48.5,48.5,0,0,1,3.032-17.055,43.473,43.473,0,0,1,8.584-14.155,39.954,39.954,0,0,1,13.367-9.663,42.436,42.436,0,0,1,17.347-3.572A42.279,42.279,0,0,1,368-123.552a40.374,40.374,0,0,1,13.447,9.77,44.116,44.116,0,0,1,8.665,14.305,48.964,48.964,0,0,1,3.068,17.227v.47a48.583,48.583,0,0,1-3.028,17.054A43.6,43.6,0,0,1,381.6-50.571a39.856,39.856,0,0,1-13.3,9.663A41.875,41.875,0,0,1,351.09-37.335Zm-.47-88.83a41.444,41.444,0,0,0-16.941,3.486,38.956,38.956,0,0,0-13.034,9.423A45.025,45.025,0,0,0,309.29-82.72v.47a47.127,47.127,0,0,0,3.041,16.776,43.51,43.51,0,0,0,8.549,14,39.965,39.965,0,0,0,13.2,9.586,41.244,41.244,0,0,0,17.013,3.558c23.428,0,41.1-18.677,41.1-43.445v-.47C392.185-107.286,374.316-126.165,350.62-126.165ZM538.855-85.04H508.04v-40.715h30.58a39.5,39.5,0,0,1,10.332,1.251,22.821,22.821,0,0,1,7.95,3.787,16.838,16.838,0,0,1,5.107,6.356,20.99,20.99,0,0,1,1.786,8.846v.47a18.078,18.078,0,0,1-6.679,14.636C552.749-86.9,546.435-85.04,538.855-85.04Zm-29.815-1h29.815c7.349,0,13.447-1.78,17.635-5.148a17.11,17.11,0,0,0,6.305-13.857v-.47c0-6.251-2.187-11.1-6.5-14.408a21.831,21.831,0,0,0-7.6-3.616,38.508,38.508,0,0,0-10.069-1.216H509.04Z" transform="translate(-2.832 168.29)" fill="#0c0d0d"/>
</svg>
